/* XPM */
static char *_807d0d6ce8349ee8abae8c566d6e2c1jDMuPtKBnCCSnY8n[] = {
/* columns rows colors chars-per-pixel */
"64 64 16 1 ",
"  c None",
". c black",
"X c #1D1D1D",
"o c gray13",
"O c #9F9670",
"+ c #9F9770",
"@ c #A09670",
"# c #B7AD81",
"$ c #B8AD81",
"% c #D3C694",
"& c #D4C694",
"* c #D4C794",
"= c #F2E4AA",
"- c #F3E4AA",
"; c #F3E5AA",
": c #F4E4AA",
/* pixels */
"                                                                ",
"                                                                ",
"                                                                ",
"                                                                ",
"                                                                ",
"                                                                ",
"           oooooooooooooooooooooo                               ",
"       ooooo====================ooooooooo                       ",
"      oo=====#==========================ooooooooo               ",
"       oo=====.%%#%%%#%%%%%#%%%%#%=##%#%#%======oo              ",
"        oo=====....................%.......%=====o              ",
"         oo========.===.===.==.=.==..======..%===o              ",
"          oo=======.===.===.==.=..======.==.=..==oo             ",
"           o====#=:.===.===.==..=.======..=.======o             ",
"           o====#.*:============##===#O@%%========o             ",
"           oo====...***$**=======..%#%.....========o            ",
"            o=======.......%#%%%#%=....==..%%%%#%%#X            ",
"            oo=======.==.==........=====.==..........           ",
"             o=======.==.====.==.==.====.===.=======o           ",
"             oo===##%.==.====.==.===.===..==.===.===o           ",
"              o====...%#.%==========.========.==.===o           ",
"              oo======.....#%%%%#%%%%#%=========.===o           ",
"               o====.===.==.............%===========o           ",
"               o====.===.=====.====.====..==========o           ",
"               o====.===.=====.====..====.====.=====o           ",
"               oo===.===..====.=====.====..===..====o           ",
"                o#%=.=====================.#%==.====oo          ",
"                o=...%#%%%#%%==============...%%#%%#=o          ",
"                o===..........%#%%%%#%========.......o          ",
"                o====..===.===.........%=============.          ",
"                o====.====.===.======.=..=====.======o          ",
"                o====.====.===.======.==..====.======o          ",
"                o=============================.======o          ",
"                o=====#%#%%%%%%#%%%%%%#%%%%###=======o          ",
"                o======........................======o          ",
"               oo=====.======.======.=====.===...====o          ",
"               o======.======.=====..=====.====...===o          ",
"               o=============..====.%%%#%%%%%%%#%%%O#o          ",
"               o==#%#%%%#%%%%%%#%%%%=.................          ",
"               o===..................===..=======.=.=o          ",
"              oo====.=========.=====.====.=======.===o          ",
"              o=====.===.=====..====.====.=======.===o          ",
"             oo=====.===..=====.=====================o          ",
"             o=#========%.#%%%%%%%%#%%%%%%%#%%=======o          ",
"             o==.#%%#%%%=......................%#====o          ",
"            oo===........===.====..====.=======...==oo          ",
"            o=======.========.===.=====..=======.=.=oo          ",
"           o========..=======.===.======.=======.===o           ",
"          oo=====================.======.===========o           ",
"         oo========================================oo           ",
"        ooooooooooo================================o            ",
"                  oooooooooooooooooooooooooooooooooo            ",
"                                                                ",
"                                                                ",
"                      .......................                   ",
"                 .................................              ",
"                ...................................             ",
"                 .................................              ",
"                      .......................                   ",
"                                                                ",
"                                                                ",
"                                                                ",
"                                                                ",
"                                                                "
};
