/* XPM */
static char *b8b8c200ace34f85fd324b32ae643e367Fxa7ZyEQmac0ro8[] = {
/* columns rows colors chars-per-pixel */
"64 64 8 1 ",
"  c #4C4C4C",
". c #7C7C7C",
"X c #B2B2B2",
"o c #CDCBBA",
"O c #E5E3D0",
"+ c gray90",
"@ c #FFFDE8",
"# c white",
/* pixels */
"                                                                ",
" .............................................................. ",
" .XXXXXXXXXXXXXXXXXXXXXXXXXXXXXXXXXXXXXXXXXXXXXXXXXXXXXXXXXXXX. ",
" .X@@@@@@@@@@@@@@@@@@@@@@@@@@@@@@@@@@@@@@@@@@##O@@@@@@@@@@@@@X. ",
" .X@@@@@O##@@@@@@@@@@@@@@@@@@@@@#@@@@@@@@@@@@@#O@@@@@@@@@@@@@X. ",
" .X@@@@@@O#@@@@@@@@@@@@@@@@@@@@#O@@@@@@@@@@@@@+@@@@@@@@@@@@@@X. ",
" .X@@@@@@+#@@@@@@@@@@@@@@@@@@@#OO@@@@@@@@@@@@@+@@@@@@@@@@@@@@X. ",
" .X@@@@@OO#@@@@@@@@@@###@@@@@#OO@@@@@@@@@@@@@@+@@@@@@@@@@@@@@X. ",
" .X@@@@@O##@@@@@@@@@@OOO##@@#OO@@@@@@@@@@@@@@@+@@@@@@@@@@@@@@X. ",
" .X@@@@@O#@@@@@@@@@@@@@OO#@#OO@@@@@@@@@@@@@#O@#O@@@@@@@@@@@@@X. ",
" .X@@@@OO#@@@@@@@@@@@@@@OO#+O@@@@@@@@@@@@@#+@@@+O@@@@@@O#@@@@X. ",
" .X@@@@O@#@@@@@@@@@@@@@@@O#O@@@@@@@@@@@@@@#O@@@@+O@@@@@O#@@@@X. ",
" .X@@@OO#@@@@@@@@@@@@@@@@@O@@@@@@@@@@@@@@@OO@@@@#OO@@@@O+#@@@X. ",
" .X@@@O##@@@@@@@@@@@@@@@@@@@@@@@@@@@@@@@@@@@@@@@@#OO@@@@O#@@@X. ",
" .X@@@OO#@@@@@@@@@@@@@@@@@@@@@@@@@@@@@@@@@@@@@@@@@#OO@@@@O@@@X. ",
" .X@@@@OO#@@@@@@@@@@@@@@@@@@@@@@@@@@@@@@@@@@@@@@@@@#OO@@@@@@@X. ",
" .X@@@@@OO+@@@@@@@@@@@@@@@@@@@@@@@@@@@@@@@@@@@@@@@@#@O@@@@@@@X. ",
" .X@@@@@@@@@@@@@@@@@@@@@@@@@@@@@@@@@@@@@@@@@@@@@@@@@#@O@@@@@@X. ",
" .X@@@@@@@@@@@@@@@@@@@@@@@@@@@@@@@@@@@@@@@@@@@@@@@@@#OO@@@@@@X. ",
" .X@@@@@@@@@@@@@@@O#@@@@@@@@@@@@@O#@@@@@@@@@@@@@@@@@#O@@@@@@@X. ",
" .X@@@@@@@@@@@@@@@O+#@@@@@@@@@@@@O+#@@@@@@@@@@@@@@@@@@@@@@@@@X. ",
" .X@@@@@@@@@@@@@@@@O#@@@@@@@@@@@@@OO@@@@@@@@@@@@@@@@@@@@@@@@@X. ",
" .X@@@@@@@@@@@@@@@@O#@@@@@@@@@@@@@@@@@@@@@@@@@@@@@@@@@@@@@@@@X. ",
" .X@@@@@#O@@@@@@@@@@#@@@@@@@@@@@@@@@@@@@@@@@@#OO@@@@@@@@@@@@@X. ",
" .X@@@@##OO@@@@@@@@@@@@@@@@@@@@@@@@@@@@@@@@@@##OOO@@@@@@@@@@@X. ",
" .X@@@@#OO@@@@@@@@@@@@@@@@@@@@@@@@@@@@@@@@@@@@@##@@@@@@@@@@@@X. ",
" .X@@@@@@@@@@@@@@@@@@@@@@@@@@#O@@@@@@@@@@@@@@@@@@@@@@@@@@@@@@X. ",
" .X@@@@@@@@@@@@@@@@@@@@@@@@@##O@@@@@@@@@@@@@@@@@@@@@@@@@@@@@@X. ",
" .X@@@@@@@@@@@@@@@@@@@@@@####OO@@O#@@@@@@@@@@@@@@@@@@@@@@@@@@X. ",
" .X@@@@@@@@@@@@@@@@@@@@##OOOOO@@@OO#@@@@@@@@@@@@@@@@@@@@@@@@@X. ",
" .X@@@@@@@@@@@@@@######OOO@@@@@@@OO#@@@@@@@@@@@@@@@@@@@@@@@@@X. ",
" .X@@@@@@@@@@@@@@OOO###O@@@@@@@@@@OO#@@@@@@@@@@@@@@OOO@@@@@@@X. ",
" .X@@@@@@@@@@@@@@@@OOOO@@@@@@@@@@@@OO#@@@@@@@@@@@@@##OO@@@@@@X. ",
" .X@@@@@@@#O@@@@@@@@@@@@@@@@@@@@@@@@O##@@@@@@@@@@@@@@#OO@@@@@X. ",
" .X@@@@@@@#O@@@@@@@@@@@@@@@@@@@@@@@@@O#@@@@@@@@@@@@@@@#OO@@@@X. ",
" .X@@@@@##OO@@@@@@@@@@@@@@@@@@@@@@@@@OO#@@@@@@@@@@@@@@#@O@@@@X. ",
" .X@@@##@OO@@@@@@@@@@@@@@@@@@@@@@@@@@@O#@@@@@@@@@@@@@@@#OO@@@X. ",
" .X@@OOOO@@@@@@@@@@@@@@@@@@@@@@@@@@@@@@O#@@@@@@@@@@@@@@@@@@@@X. ",
" .X@@@@@@@@@@@@@@@@@@@@@@@@@@@@@@@@@@@@O#@@@@@@@@@@@@@@@@@@@@X. ",
" .X@@@@@@@@@@@@@@@@@@@@@@@@@@@@@@@@@@@OO#@@@@@@@@@@@@@@@@@@@@X. ",
" .X@@@@@@@@@@@@@@@@@@@@@@@@@@@@@@@@@@@O##@@@@@@@@@@@@@@@@@@@@X. ",
" .X@@@@@@@@OO@@@@@@@@@@#@@@@@@@@@@@@@@O##@@@@@@@@@@@@@@@@@@@@X. ",
" .X@@@@@@@@#+OO@@@@@@@OO##@@@@@@@@@@@@OO##@@@@@@@@@@@@@@@@@@@X. ",
" .X@@@@@@@@@@#@@@@@@@@@OOO####@@@@@@@@@OOO#@@@@@@@@@@@@@@@@@@X. ",
" .X@@@@@@@@@@@@@@@@@@@@@@@OOO+##@@@@@@@@OO#@@@@@O@@@@@@@@@@@@X. ",
" .X@@@@@@@@@@@@@@@@@@@@@@@@@@OOO@@@@@@@@@OO@@@@@O+#@@@@@@@@@@X. ",
" .X@@@@@@@@@@@@@@@@@@@@@@@@@@@@@@@@@@@@@@@@@@@@@@O#@@@@@@@@@@X. ",
" .X@@@@@@@@@@@@@@@@@@@@@@@@@@@@@@@@@@@@@@@@@@@@@@OO#@@@@@@@@@X. ",
" .X@@@@@#O@@@@@@@@@@@@@@@@@@@@@@@@@@@@@@@@@@@@@@@@OO##@@@@@@@X. ",
" .X@@@@@#O@@@@@@@@@@@@@@@@@@@@@@@@@@@@@@@@@@@@@@@@@@O+#@@@@@@X. ",
" .X@@@@@@#O@@@@@@@@@@@@@@@@@@@@@@@@@@@@@@@@@@@@@@@@@@O@@@@@@@X. ",
" .X@@@@@@@@@@@@@@@@@@@@@@@@@@@@@@@@@@@@@@@@@@@@@@@@@@@@@@@@@@X. ",
" .X@@@@@@@@@@@@@@@@@@@@@@@@@@@@@@@@@@@@@@@@@@@@@@@@@@@@@@@@@@X. ",
" .X@@@@@@@@@@@@@@@@@@@@@@@@@@@@@@@@@@@OO#@@@@@@@@@@@@@@@@@@@@X. ",
" .X@@@@@@@@@@@@@@@@@@@@@O#@@@@@@@@OOOO##@@@@@@@@@@@@@@@@@@@@@X. ",
" .X@@@@@@@@@@@@@@@@@@@@@O+#@@@@OOO+###@@@@@@@@@@@@@@@@@@@@@@@X. ",
" .X@@@O@@@@@@@@@@@@++@@@@OO#@O+###@@@@@@@@@@@OOOOOOO@@@@@@O@@X. ",
" .X@O+#@@@@@@@@OOO+#@@@@@@o######@@@@@@@@@@@+#######+#@@@O+@@X. ",
" .XOO#@@@@@@@@@####@@@@@OO#@@@@@@@@@@@@@@@@@@@@@@@@@@O@@O+@@@X. ",
" .X@##@@@@@@@@@@@@@@@@@OO#@@@@@@@@@@@@@@@@@@@@@@@@@@@@@@@#@@@X. ",
" .X@@@@@@@@@@@@@@@@@@@@@#@@@@@@@@@@@@@@@@@@@@@@@@@@@@@@@@@@@@X. ",
" .XXXXXXXXXXXXXXXXXXXXXXXXXXXXXXXXXXXXXXXXXXXXXXXXXXXXXXXXXXXX. ",
" .............................................................. ",
"                                                                "
};
