/* XPM */
static char *_1cff8df06034a199389d724e1db47ebGV3A88ugvokol0Wz[] = {
/* columns rows colors chars-per-pixel */
"64 64 10 1 ",
"  c black",
". c gray13",
"X c #6D3E29",
"o c #1C1F52",
"O c #464646",
"+ c #9C5A3C",
"@ c #D1C300",
"# c #D6A65E",
"$ c #F0CD90",
"% c white",
/* pixels */
"oooooooooooooooooooooooooooooooooooooooooooooooooooooooooooooooo",
"oooooooooooooooooooooooooooooooooooooooooooooooooooooooooooooooo",
"oooooooooooooooooooooooooo            oooooooooooooooooooooooooo",
"ooooooooooooooooooooooooo XXXXXXXXXXXX   ooooooooooooooooooooooo",
"oooooooooooooooooooooo   X+++++++++++++++ oooooooooooooooooooooo",
"ooooooooooooooooooooo   X+++++++++++++++ ooooooooooooooooooooooo",
"oooooooooooooooooooo  XX+++++++++++++++  ooooooooooooooooooooooo",
"ooooooooooooooooooo XX+++++++++++++++    ooooooooooooooooooooooo",
"ooooooooooooooooooo X++++ +++++++++  ##   oooooooooooooooooooooo",
"oooooooooooooooooo X+++  #         ##$$ X+ ooooooooooooooooooooo",
"oooooooooooooooooo X++   ##########$$$$ X+ ooooooooooooooooooooo",
"oooooooooooooooooo X++ ##########$$$$$$ X+ ooooooooooooooooooooo",
"oooooooooooooooooo X++ ####$$$$$$$$$$$$ X+ ooooooooooooooooooooo",
"oooooooooooooooooo X+ ####$$$$$$$$$$$$$ X+ ooooooooooooooooooooo",
"ooooooooooooooooo X+  ####$$$$$$$$$$$$$ X+ ooooooooooooooooooooo",
"ooooooooooooooooo X+  ####    $$$$$$$   X+ ooooooooooooooooooooo",
"ooooooooooooooooo X++ ### ####  $$$  ## X+ ooooooooooooooooooooo",
"ooooooooooooooooo X++ ####### $$$$$## $ X+ ooooooooooooooooooooo",
"ooooooooooooooooo X+++   ##$$ $$$$$## $ X+ ooooooooooooooooooooo",
"ooooooooooooooooo X++++  ##$$ $$$$$## $ X+ ooooooooooooooooooooo",
"ooooooooooooooooo X+   ####$$$$$$$$##$$ X+ ooooooooooooooooooooo",
"oooooooooooooooooo X+  ####$$$$$$$$$$$$ X oooooooooooooooooooooo",
"ooooooooooooooooooo X++  ##$$$     $$$$  ooooooooooooooooooooooo",
"ooooooooooooooooooo XXX  ##$$$$$$$$$$$$ oooooooooooooooooooooooo",
"oooooooooooooooooooo     ####$$$$$$$$$ ooooooooooooooooooooooooo",
"oooooooooooooooooooo .... ####$$$$$$$ oooooooooooooooooooooooooo",
"ooooooooooooooooooo ..OOO    #$$$$$    ooooooooooooooooooooooooo",
"ooooooooooooooooooo .OOOO    #$$$$$    ooooooooooooooooooooooooo",
"oooooooooooooooooo  .OOOO %%%      %% .  ooooooooooooooooooooooo",
"ooooooooooooooooo . ..OOOO            .   oooooooooooooooooooooo",
"ooooooooooooooo  ... ...OO %%   %  %% O    ooooooooooooooooooooo",
"oooooooooooooo ......  .OOO     %  %% O .   oooooooooooooooooooo",
"oooooooooooooo ......  ...O  %%%%%%%% O ..  oooooooooooooooooooo",
"oooooooooooooo ....O...  ..OO %%%%%%% O  .. oooooooooooooooooooo",
"oooooooooooooo ...OO .... .OOO  %%%%% O  ..  ooooooooooooooooooo",
"oooooooooooooo ...O  .... ..OOOO  %%% O  ..  ooooooooooooooooooo",
"oooooooooooooo ...O  ..... ...OO  %%% O  ..  ooooooooooooooooooo",
"ooooooooooooooo  .OOO  ....   .OOO %% O  ..  ooooooooooooooooooo",
"ooooooooooooooo  ..OOOO  .....    O     ...  ooooooooooooooooooo",
"ooooooooooooooooo ..OOO  ....OOOOO   .O ..  oooooooooooooooooooo",
"ooooooooooooooooo ..OOO  ....OOOOO   .O  .  oooooooooooooooooooo",
"oooooooooooooooooo ..OO  ..OOOOOOOO@@.O    ooooooooooooooooooooo",
"ooooooooooooooooooo    ....OOOOOOOOOO.O   oooooooooooooooooooooo",
"ooooooooooooooooooo ......OOOOOOOOO@@.O  ooooooooooooooooooooooo",
"ooooooooooooooooooo ......OOOOOOOOO@@.O  ooooooooooooooooooooooo",
"ooooooooooooooooooo ......OOOOOOOOOOO.O  ooooooooooooooooooooooo",
"ooooooooooooooooooo ...                  ooooooooooooooooooooooo",
"ooooooooooooooooooo .  XXXXXXXXXXXXXX+ ooooooooooooooooooooooooo",
"ooooooooooooooooooo .  XXXXXXXXXXXXXX+ ooooooooooooooooooooooooo",
"ooooooooooooooooooo    XXXXXX+    XXX+ ooooooooooooooooooooooooo",
"ooooooooooooooooooooooo  XX++ oooo XX+ ooooooooooooooooooooooooo",
"ooooooooooooooooooooooo  X+++ oooo X++ ooooooooooooooooooooooooo",
"ooooooooooooooooooooooo  X+  ooooo X+ oooooooooooooooooooooooooo",
"ooooooooooooooooooooooo  X+  ooooo X+ oooooooooooooooooooooooooo",
"ooooooooooooooooooooooo  X+  ooooo X+ oooooooooooooooooooooooooo",
"ooooooooooooooooooooooo  X+  ooooo X+ oooooooooooooooooooooooooo",
"ooooooooooooooooooooooo  XX  ooooo X+ oooooooooooooooooooooooooo",
"ooooooooooooooooooooooo  XX  ooooo X+ oooooooooooooooooooooooooo",
"ooooooooooooooooooooooo      ooooo    oooooooooooooooooooooooooo",
"ooooooooooooooooooooooo      ooooo     ooooooooooooooooooooooooo",
"ooooooooooooooooooooooo         oo        oooooooooooooooooooooo",
"ooooooooooooooooooooooo         oo        oooooooooooooooooooooo",
"oooooooooooooo   o                            oooooooooooooooooo",
"oooooooooooooooooooooooooooooooooooooooooooooooooooooooooooooooo"
};
