/* XPM */
static char *_086d6515fe0422eef37c71ccc55741eGYOVL3I85HBZ4Eb5[] = {
/* columns rows colors chars-per-pixel */
"64 64 10 1 ",
"  c black",
". c gray13",
"X c #6D3E29",
"o c #1C1F52",
"O c #464646",
"+ c #9C5A3C",
"@ c #D1C300",
"# c #D6A65E",
"$ c #F0CD90",
"% c white",
/* pixels */
"oooooooooooooooooooooooooooooooooooooooooooooooooooooooooooooooo",
"oooooooooooooooooooooooooooooooooooooooooooooooooooooooooooooooo",
"oooooooooooooooooooooooooo            oooooooooooooooooooooooooo",
"ooooooooooooooooooooooo   XXXXXXXXXXXX ooooooooooooooooooooooooo",
"oooooooooooooooooooooo +++++++++++++++X   oooooooooooooooooooooo",
"ooooooooooooooooooooooo +++++++++++++++X   ooooooooooooooooooooo",
"ooooooooooooooooooooooo  +++++++++++++++XX  oooooooooooooooooooo",
"ooooooooooooooooooooooo    +++++++++++++++XX ooooooooooooooooooo",
"oooooooooooooooooooooo   ##  +++++++++ ++++X ooooooooooooooooooo",
"ooooooooooooooooooooo +X $$##         #  +++X oooooooooooooooooo",
"ooooooooooooooooooooo +X $$$$##########   ++X oooooooooooooooooo",
"ooooooooooooooooooooo +X $$$$$$########## ++X oooooooooooooooooo",
"ooooooooooooooooooooo +X $$$$$$$$$$$$#### ++X oooooooooooooooooo",
"ooooooooooooooooooooo +X $$$$$$$$$$$$$#### +X oooooooooooooooooo",
"ooooooooooooooooooooo +X $$$$$$$$$$$$$####  +X ooooooooooooooooo",
"ooooooooooooooooooooo +X   $$$$$$$    ####  +X ooooooooooooooooo",
"ooooooooooooooooooooo +X ##  $$$  #### ### ++X ooooooooooooooooo",
"ooooooooooooooooooooo +X $ ##$$$$$ ####### ++X ooooooooooooooooo",
"ooooooooooooooooooooo +X $ ##$$$$$ $$##   +++X ooooooooooooooooo",
"ooooooooooooooooooooo +X $ ##$$$$$ $$##  ++++X ooooooooooooooooo",
"ooooooooooooooooooooo +X $$##$$$$$$$$####   +X ooooooooooooooooo",
"oooooooooooooooooooooo X $$$$$$$$$$$$####  +X oooooooooooooooooo",
"ooooooooooooooooooooooo  $$$$     $$$##  ++X ooooooooooooooooooo",
"oooooooooooooooooooooooo $$$$$$$$$$$$##  XXX ooooooooooooooooooo",
"ooooooooooooooooooooooooo $$$$$$$$$####     oooooooooooooooooooo",
"oooooooooooooooooooooooooo $$$$$$$#### .... oooooooooooooooooooo",
"ooooooooooooooooooooooooo    $$$$$#    OOO.. ooooooooooooooooooo",
"ooooooooooooooooooooooooo    $$$$$#    OOOO. ooooooooooooooooooo",
"ooooooooooooooooooooooo  . %%      %%% OOOO.  oooooooooooooooooo",
"oooooooooooooooooooooo   .            OOOO.. . ooooooooooooooooo",
"ooooooooooooooooooooo    O %%  %   %% OO... ...  ooooooooooooooo",
"oooooooooooooooooooo   . O %%  %     OOO.  ...... oooooooooooooo",
"oooooooooooooooooooo  .. O %%%%%%%%  O...  ...... oooooooooooooo",
"oooooooooooooooooooo ..  O %%%%%%% OO..  ...O.... oooooooooooooo",
"ooooooooooooooooooo  ..  O %%%%%  OOO. .... OO... oooooooooooooo",
"ooooooooooooooooooo  ..  O %%%  OOOO.. ....  O... oooooooooooooo",
"ooooooooooooooooooo  ..  O %%%  OO... .....  O... oooooooooooooo",
"ooooooooooooooooooo  ..  O %% OOO.   ....  OOO.  ooooooooooooooo",
"ooooooooooooooooooo  ...     O    .....  OOOO..  ooooooooooooooo",
"oooooooooooooooooooo  .. O.   OOOOO....  OOO.. ooooooooooooooooo",
"oooooooooooooooooooo  .  O.   OOOOO....  OOO.. ooooooooooooooooo",
"ooooooooooooooooooooo    O.@@OOOOOOOO..  OO.. oooooooooooooooooo",
"oooooooooooooooooooooo   O.OOOOOOOOOO....    ooooooooooooooooooo",
"ooooooooooooooooooooooo  O.@@OOOOOOOOO...... ooooooooooooooooooo",
"ooooooooooooooooooooooo  O.@@OOOOOOOOO...... ooooooooooooooooooo",
"ooooooooooooooooooooooo  O.OOOOOOOOOOO...... ooooooooooooooooooo",
"ooooooooooooooooooooooo                  ... ooooooooooooooooooo",
"ooooooooooooooooooooooooo +XXXXXXXXXXXXXX  . ooooooooooooooooooo",
"ooooooooooooooooooooooooo +XXXXXXXXXXXXXX  . ooooooooooooooooooo",
"ooooooooooooooooooooooooo +XXX    +XXXXXX    ooooooooooooooooooo",
"ooooooooooooooooooooooooo +XX oooo ++XX  ooooooooooooooooooooooo",
"ooooooooooooooooooooooooo ++X oooo +++X  ooooooooooooooooooooooo",
"oooooooooooooooooooooooooo +X ooooo  +X  ooooooooooooooooooooooo",
"oooooooooooooooooooooooooo +X ooooo  +X  ooooooooooooooooooooooo",
"oooooooooooooooooooooooooo +X ooooo  +X  ooooooooooooooooooooooo",
"oooooooooooooooooooooooooo +X ooooo  +X  ooooooooooooooooooooooo",
"oooooooooooooooooooooooooo +X ooooo  XX  ooooooooooooooooooooooo",
"oooooooooooooooooooooooooo +X ooooo  XX  ooooooooooooooooooooooo",
"oooooooooooooooooooooooooo    ooooo      ooooooooooooooooooooooo",
"ooooooooooooooooooooooooo     ooooo      ooooooooooooooooooooooo",
"oooooooooooooooooooooo        oo         ooooooooooooooooooooooo",
"oooooooooooooooooooooo        oo         ooooooooooooooooooooooo",
"oooooooooooooooooo                            o   oooooooooooooo",
"oooooooooooooooooooooooooooooooooooooooooooooooooooooooooooooooo"
};
