/* XPM */
static char *_78ab6c15e29497be75fded16dae70ab1cSM6tjptYJOnzHr[] = {
/* columns rows colors chars-per-pixel */
"64 64 6 1 ",
"  c black",
". c gray13",
"X c #6D3E29",
"o c #1C1F52",
"O c #464646",
"+ c #9C5A3C",
/* pixels */
"oooooooooooooooooooooooooooooooooooooooooooooooooooooooooooooooo",
"oooooooooooooooooooooooooooooooooooooooooooooooooooooooooooooooo",
"oooooooooooooooooooooooooo            oooooooooooooooooooooooooo",
"ooooooooooooooooooooooooo XXXXXXXXXXXX ooooooooooooooooooooooooo",
"ooooooooooooooooooooooo  X++++++++++++X  ooooooooooooooooooooooo",
"oooooooooooooooooooooo  X++++++++++++++XX oooooooooooooooooooooo",
"oooooooooooooooooooooo XX+++++++++++++++XX ooooooooooooooooooooo",
"ooooooooooooooooooooo XX+++++++++++++++++XX oooooooooooooooooooo",
"ooooooooooooooooooooo X+++++++++++++++++++X oooooooooooooooooooo",
"ooooooooooooooooooooo X++++++++++++++++++++X ooooooooooooooooooo",
"ooooooooooooooooooooo X++++++++++++++++++++X ooooooooooooooooooo",
"ooooooooooooooooooooo X++++++++++++++++++++X ooooooooooooooooooo",
"ooooooooooooooooooooo X++++++++++++++++++++X ooooooooooooooooooo",
"ooooooooooooooooooooo X++++++++++++++++++++X ooooooooooooooooooo",
"ooooooooooooooooooooo X+++++++++++++++++++++X oooooooooooooooooo",
"ooooooooooooooooooooo X+++++++++++++++++++++X oooooooooooooooooo",
"ooooooooooooooooooooo X+++++++++++++++++++++X oooooooooooooooooo",
"ooooooooooooooooooooo X+++++++++++++++++++++X oooooooooooooooooo",
"ooooooooooooooooooooo X+++++++++++++++++++++X oooooooooooooooooo",
"ooooooooooooooooooooo X+++++++++++++++++++++X oooooooooooooooooo",
"ooooooooooooooooooooo X+++++++++++++++++++++X oooooooooooooooooo",
"oooooooooooooooooooooo XXX+++++++++++++++++X ooooooooooooooooooo",
"ooooooooooooooooooooooo   X+++++++++++++++X oooooooooooooooooooo",
"oooooooooooooooooooooooo  XX+++++++++++XXXX oooooooooooooooooooo",
"ooooooooooooooooooooooooo   XX++++++++X    ooooooooooooooooooooo",
"oooooooooooooooooooooooooo    XXXXXXXX    oooooooooooooooooooooo",
"ooooooooooooooooooooooooo    .             ooooooooooooooooooooo",
"ooooooooooooooooooooooooo    ............  ooooooooooooooooooooo",
"ooooooooooooooooooooooo  . ..OOOOOOOOOO..   oooooooooooooooooooo",
"oooooooooooooooooooooo   . ......OOOOOOO.  . ooooooooooooooooooo",
"ooooooooooooooooooooo    O .OOOOOOOOO..O. ...  ooooooooooooooooo",
"oooooooooooooooooooo   O O .OOOOOOOO..OO. O.... oooooooooooooooo",
"oooooooooooooooooooo  OO O .OOOOOOOOOOOO. OO... oooooooooooooooo",
"oooooooooooooooooooo OO  O .OOOOOOOOOOOO. OOO.. oooooooooooooooo",
"ooooooooooooooooooo  OO  O .OOO...OOOOOO. OOOO. oooooooooooooooo",
"ooooooooooooooooooo  OO  O .OOOOOOOOOOOO.  OOO. oooooooooooooooo",
"ooooooooooooooooooo  OO  O .OOOOOOOOOOOO.  OO.. oooooooooooooooo",
"ooooooooooooooooooo  OO  O .OOOOOOOOO..O. OO.. ooooooooooooooooo",
"ooooooooooooooooooo  OOO   .OOOOOOOOOO... O..  ooooooooooooooooo",
"oooooooooooooooooooo  OO O .OOOOOOOOOOO.. .. ooooooooooooooooooo",
"oooooooooooooooooooo  O OO .O.OOOOOOOOOO. .. ooooooooooooooooooo",
"ooooooooooooooooooooo   OO .O....OOOOOOO. . oooooooooooooooooooo",
"oooooooooooooooooooooo  OO ...OOOOOOOO.O.  ooooooooooooooooooooo",
"ooooooooooooooooooooooo OO ..OOOOOOOOO...  ooooooooooooooooooooo",
"ooooooooooooooooooooooo OO...OOOOOOOOOO..  ooooooooooooooooooooo",
"ooooooooooooooooooooooo .................. ooooooooooooooooooooo",
"oooooooooooooooooooooooo                  oooooooooooooooooooooo",
"ooooooooooooooooooooooooo +XXXXXXXXXXXXXX oooooooooooooooooooooo",
"ooooooooooooooooooooooooo +XXXXXXXXXXXXXX oooooooooooooooooooooo",
"ooooooooooooooooooooooooo +XXX    +XXXXXX oooooooooooooooooooooo",
"ooooooooooooooooooooooooo +XX oooo ++XX   oooooooooooooooooooooo",
"ooooooooooooooooooooooooo ++X oooo +++X  ooooooooooooooooooooooo",
"ooooooooooooooooooooooooo  +X ooooo  +X  ooooooooooooooooooooooo",
"oooooooooooooooooooooooooo +X ooooo  +X  ooooooooooooooooooooooo",
"oooooooooooooooooooooooooo +X ooooo  +X  ooooooooooooooooooooooo",
"oooooooooooooooooooooooooo +X ooooo  +X  ooooooooooooooooooooooo",
"oooooooooooooooooooooooooo +X ooooo  XX  ooooooooooooooooooooooo",
"oooooooooooooooooooooooooo +X ooooo  XX  ooooooooooooooooooooooo",
"oooooooooooooooooooooooooo    ooooo      ooooooooooooooooooooooo",
"ooooooooooooooooooooooooo     ooooo      ooooooooooooooooooooooo",
"ooooooooooooooooooooooooo     ooooo      ooooooooooooooooooooooo",
"ooooooooooooooooooooooooo     ooooo      ooooooooooooooooooooooo",
"oooooooooooooooooo                            o   oooooooooooooo",
"oooooooooooooooooooooooooooooooooooooooooooooooooooooooooooooooo"
};
